<?xml version="1.0" encoding="UTF-8"?>
<svg width="37px" height="36px" viewBox="0 0 37 36" version="1.1" xmlns="http://www.w3.org/2000/svg" xmlns:xlink="http://www.w3.org/1999/xlink">
    <!-- Generator: Sketch 42 (36781) - http://www.bohemiancoding.com/sketch -->
    <title>icon</title>
    <desc>Created with Sketch.</desc>
    <defs></defs>
    <g id="Page-1" stroke="none" stroke-width="1" fill="none" fill-rule="evenodd">
        <g id="Ювелирка" transform="translate(-701.000000, -2679.000000)" fill="#333333">
            <g id="instagram" transform="translate(-56.000000, 2676.000000)">
                <path d="M781.05,21 C781.05,19.3437417 780.464068,17.9296934 779.292188,16.7578125 C778.120307,15.5859316 776.706258,15 775.05,15 C773.393742,15 771.979693,15.5859316 770.807813,16.7578125 C769.635932,17.9296934 769.05,19.3437417 769.05,21 C769.05,22.6562583 769.635932,24.0703066 770.807813,25.2421875 C771.979693,26.4140684 773.393742,27 775.05,27 C776.706258,27 778.120307,26.4140684 779.292188,25.2421875 C780.464068,24.0703066 781.05,22.6562583 781.05,21 Z M784.284375,21 C784.284375,23.5625128 783.385947,25.7421785 781.589063,27.5390625 C779.792179,29.3359465 777.612513,30.234375 775.05,30.234375 C772.487487,30.234375 770.307822,29.3359465 768.510938,27.5390625 C766.714054,25.7421785 765.815625,23.5625128 765.815625,21 C765.815625,18.4374872 766.714054,16.2578215 768.510938,14.4609375 C770.307822,12.6640535 772.487487,11.765625 775.05,11.765625 C777.612513,11.765625 779.792179,12.6640535 781.589063,14.4609375 C783.385947,16.2578215 784.284375,18.4374872 784.284375,21 Z M786.815625,11.390625 C786.815625,11.984378 786.60469,12.4921854 786.182813,12.9140625 C785.760935,13.3359396 785.253128,13.546875 784.659375,13.546875 C784.065622,13.546875 783.557815,13.3359396 783.135938,12.9140625 C782.71406,12.4921854 782.503125,11.984378 782.503125,11.390625 C782.503125,10.796872 782.71406,10.2890646 783.135938,9.8671875 C783.557815,9.44531039 784.065622,9.234375 784.659375,9.234375 C785.253128,9.234375 785.760935,9.44531039 786.182813,9.8671875 C786.60469,10.2890646 786.815625,10.796872 786.815625,11.390625 Z M775.05,6.234375 C774.940624,6.234375 774.342974,6.23046879 773.257031,6.22265625 C772.171088,6.21484371 771.346878,6.21484371 770.784375,6.22265625 C770.221872,6.23046879 769.467974,6.25390605 768.522656,6.29296875 C767.577339,6.33203145 766.77266,6.41015566 766.108594,6.52734375 C765.444528,6.64453184 764.88594,6.78906164 764.432813,6.9609375 C763.651559,7.27343906 762.964066,7.72655953 762.370313,8.3203125 C761.77656,8.91406547 761.323439,9.60155859 761.010938,10.3828125 C760.839062,10.8359398 760.694532,11.3945279 760.577344,12.0585938 C760.460156,12.7226596 760.382031,13.527339 760.342969,14.4726562 C760.303906,15.4179735 760.280469,16.1718722 760.272656,16.734375 C760.264844,17.2968778 760.264844,18.1210883 760.272656,19.2070312 C760.280469,20.2929742 760.284375,20.8906245 760.284375,21 C760.284375,21.1093755 760.280469,21.7070258 760.272656,22.7929688 C760.264844,23.8789117 760.264844,24.7031222 760.272656,25.265625 C760.280469,25.8281278 760.303906,26.5820265 760.342969,27.5273437 C760.382031,28.472661 760.460156,29.2773404 760.577344,29.9414062 C760.694532,30.6054721 760.839062,31.1640602 761.010938,31.6171875 C761.323439,32.3984414 761.77656,33.0859345 762.370313,33.6796875 C762.964066,34.2734405 763.651559,34.7265609 764.432813,35.0390625 C764.88594,35.2109384 765.444528,35.3554682 766.108594,35.4726562 C766.77266,35.5898443 767.577339,35.6679686 768.522656,35.7070312 C769.467974,35.7460939 770.221872,35.7695312 770.784375,35.7773438 C771.346878,35.7851563 772.171088,35.7851563 773.257031,35.7773438 C774.342974,35.7695312 774.940624,35.765625 775.05,35.765625 C775.159376,35.765625 775.757026,35.7695312 776.842969,35.7773438 C777.928912,35.7851563 778.753122,35.7851563 779.315625,35.7773438 C779.878128,35.7695312 780.632027,35.7460939 781.577344,35.7070312 C782.522661,35.6679686 783.32734,35.5898443 783.991406,35.4726562 C784.655472,35.3554682 785.21406,35.2109384 785.667188,35.0390625 C786.448441,34.7265609 787.135935,34.2734405 787.729688,33.6796875 C788.323441,33.0859345 788.776561,32.3984414 789.089063,31.6171875 C789.260938,31.1640602 789.405468,30.6054721 789.522656,29.9414062 C789.639844,29.2773404 789.717969,28.472661 789.757031,27.5273437 C789.796094,26.5820265 789.819531,25.8281278 789.827344,25.265625 C789.835156,24.7031222 789.835156,23.8789117 789.827344,22.7929688 C789.819531,21.7070258 789.815625,21.1093755 789.815625,21 C789.815625,20.8906245 789.819531,20.2929742 789.827344,19.2070312 C789.835156,18.1210883 789.835156,17.2968778 789.827344,16.734375 C789.819531,16.1718722 789.796094,15.4179735 789.757031,14.4726562 C789.717969,13.527339 789.639844,12.7226596 789.522656,12.0585938 C789.405468,11.3945279 789.260938,10.8359398 789.089063,10.3828125 C788.776561,9.60155859 788.323441,8.91406547 787.729688,8.3203125 C787.135935,7.72655953 786.448441,7.27343906 785.667188,6.9609375 C785.21406,6.78906164 784.655472,6.64453184 783.991406,6.52734375 C783.32734,6.41015566 782.522661,6.33203145 781.577344,6.29296875 C780.632027,6.25390605 779.878128,6.23046879 779.315625,6.22265625 C778.753122,6.21484371 777.928912,6.21484371 776.842969,6.22265625 C775.757026,6.23046879 775.159376,6.234375 775.05,6.234375 Z M793.05,21 C793.05,24.5781429 793.010938,27.0546806 792.932813,28.4296875 C792.776562,31.6797038 791.807821,34.1953036 790.026563,35.9765625 C788.245304,37.7578214 785.729704,38.7265617 782.479688,38.8828125 C781.104681,38.9609379 778.628143,39 775.05,39 C771.471857,39 768.995319,38.9609379 767.620313,38.8828125 C764.370296,38.7265617 761.854696,37.7578214 760.073438,35.9765625 C758.292179,34.1953036 757.323438,31.6797038 757.167188,28.4296875 C757.089062,27.0546806 757.05,24.5781429 757.05,21 C757.05,17.4218571 757.089062,14.9453194 757.167188,13.5703125 C757.323438,10.3202962 758.292179,7.80469641 760.073438,6.0234375 C761.854696,4.24217859 764.370296,3.27343828 767.620313,3.1171875 C768.995319,3.03906211 771.471857,3 775.05,3 C778.628143,3 781.104681,3.03906211 782.479688,3.1171875 C785.729704,3.27343828 788.245304,4.24217859 790.026563,6.0234375 C791.807821,7.80469641 792.776562,10.3202962 792.932813,13.5703125 C793.010938,14.9453194 793.05,17.4218571 793.05,21 Z" id="icon"></path>
            </g>
        </g>
    </g>
</svg>