<?xml version="1.0" encoding="UTF-8"?>
<svg width="61px" height="18px" viewBox="0 0 61 18" version="1.1" xmlns="http://www.w3.org/2000/svg" xmlns:xlink="http://www.w3.org/1999/xlink">
    <!-- Generator: Sketch 42 (36781) - http://www.bohemiancoding.com/sketch -->
    <title>Group 3</title>
    <desc>Created with Sketch.</desc>
    <defs></defs>
    <g id="Page-1" stroke="none" stroke-width="1" fill="none" fill-rule="evenodd">
        <g id="sss" transform="translate(-244.000000, -199.000000)">
            <g id="Group-3" transform="translate(244.000000, 199.000000)">
                <g id="Group-2" transform="translate(0.000000, 3.000000)">
                    <g id="Group">
                        <rect id="Rectangle" fill="#4851DB" x="0" y="0" width="20" height="6"></rect>
                        <rect id="Rectangle-Copy" fill="#ECFF0A" x="0" y="6" width="20" height="6"></rect>
                    </g>
                    <path d="M30.046875,4.75097656 L32.8222656,4.75097656 L32.8222656,5.94726562 L30.046875,5.94726562 L30.046875,9.09179688 L28.7753906,9.09179688 L28.7753906,5.94726562 L26,5.94726562 L26,4.75097656 L28.7753906,4.75097656 L28.7753906,1.84570313 L30.046875,1.84570313 L30.046875,4.75097656 Z M36.7693359,4.49804688 L37.7195312,4.49804688 C38.3165394,4.48893225 38.7859358,4.33170726 39.1277344,4.02636719 C39.4695329,3.72102712 39.6404297,3.30859635 39.6404297,2.7890625 C39.6404297,1.62239 39.0593808,1.0390625 37.8972656,1.0390625 C37.3503879,1.0390625 36.9140316,1.19514818 36.5881836,1.50732422 C36.2623356,1.81950026 36.0994141,2.23307034 36.0994141,2.74804688 L34.8347656,2.74804688 C34.8347656,1.95963147 35.1230114,1.30452735 35.6995117,0.782714844 C36.276012,0.260902339 37.0085893,0 37.8972656,0 C38.8360724,0 39.5720676,0.248369912 40.1052734,0.745117188 C40.6384792,1.24186446 40.9050781,1.93228725 40.9050781,2.81640625 C40.9050781,3.24935112 40.7649428,3.66861776 40.484668,4.07421875 C40.2043931,4.47981974 39.8227238,4.7828766 39.3396484,4.98339844 C39.8865262,5.15657639 40.3092107,5.44368289 40.6077148,5.84472656 C40.9062189,6.24577023 41.0554687,6.73567419 41.0554687,7.31445312 C41.0554687,8.20768676 40.763805,8.91633853 40.1804687,9.44042969 C39.5971325,9.96452085 38.838351,10.2265625 37.9041016,10.2265625 C36.9698521,10.2265625 36.2099313,9.97363534 35.6243164,9.46777344 C35.0387015,8.96191153 34.7458984,8.29427498 34.7458984,7.46484375 L36.0173828,7.46484375 C36.0173828,7.98893491 36.1882795,8.40820155 36.5300781,8.72265625 C36.8718767,9.03711095 37.3298799,9.19433594 37.9041016,9.19433594 C38.5147817,9.19433594 38.9818994,9.03483232 39.3054687,8.71582031 C39.6290381,8.3968083 39.7908203,7.93880507 39.7908203,7.34179688 C39.7908203,6.76301794 39.6130877,6.31868645 39.2576172,6.00878906 C38.9021466,5.69889168 38.3894565,5.53938807 37.7195312,5.53027344 L36.7693359,5.53027344 L36.7693359,4.49804688 Z M49.5279297,2.734375 C49.5279297,3.23112228 49.3969088,3.67317515 49.1348633,4.06054688 C48.8728177,4.4479186 48.5184918,4.75097547 48.071875,4.96972656 C48.5914088,5.19303497 49.0027003,5.51887807 49.3057617,5.94726562 C49.6088231,6.37565318 49.7603515,6.86099989 49.7603515,7.40332031 C49.7603515,8.26465274 49.4698271,8.95051828 48.8887695,9.4609375 C48.3077119,9.97135672 47.5432339,10.2265625 46.5953125,10.2265625 C45.6382764,10.2265625 44.8715198,9.97021741 44.2950195,9.45751953 C43.7185192,8.94482166 43.4302734,8.26009543 43.4302734,7.40332031 C43.4302734,6.86555721 43.5772446,6.3802105 43.8711914,5.94726562 C44.1651382,5.51432075 44.5718724,5.18619903 45.0914062,4.96289062 C44.6493467,4.74413953 44.3007174,4.44108267 44.0455078,4.05371094 C43.7902982,3.66633921 43.6626953,3.22656496 43.6626953,2.734375 C43.6626953,1.89582914 43.9315728,1.23047121 44.4693359,0.73828125 C45.007099,0.246091289 45.7157508,0 46.5953125,0 C47.4703169,0 48.1778293,0.246091289 48.7178711,0.73828125 C49.2579128,1.23047121 49.5279297,1.89582914 49.5279297,2.734375 Z M48.4957031,7.37597656 C48.4957031,6.8199842 48.3191098,6.36653821 47.9659179,6.015625 C47.6127261,5.66471179 47.1513049,5.48925781 46.5816406,5.48925781 C46.0119763,5.48925781 45.5551124,5.66243316 45.2110351,6.00878906 C44.8669579,6.35514496 44.6949219,6.81086957 44.6949219,7.37597656 C44.6949219,7.94108355 44.8624006,8.38541505 45.1973633,8.70898438 C45.5323259,9.0325537 45.9983043,9.19433594 46.5953125,9.19433594 C47.1877634,9.19433594 47.6526025,9.03141439 47.9898437,8.70556641 C48.327085,8.37971842 48.4957031,7.93652624 48.4957031,7.37597656 Z M46.5953125,1.0390625 C46.0985652,1.0390625 45.6963882,1.19286956 45.3887695,1.50048828 C45.0811508,1.80810701 44.9273437,2.22623434 44.9273437,2.75488281 C44.9273437,3.26074472 45.0788722,3.66975755 45.3819336,3.98193359 C45.684995,4.29410963 46.0894506,4.45019531 46.5953125,4.45019531 C47.1011744,4.45019531 47.50563,4.29410963 47.8086914,3.98193359 C48.1117528,3.66975755 48.2632812,3.26074472 48.2632812,2.75488281 C48.2632812,2.24902091 48.1060562,1.83659014 47.7916015,1.51757812 C47.4771468,1.19856611 47.0783878,1.0390625 46.5953125,1.0390625 Z" id="+38" fill="#333333"></path>
                </g>
                <rect id="Rectangle-2" fill="#999999" x="60" y="0" width="1" height="18"></rect>
            </g>
        </g>
    </g>
</svg>