<?xml version="1.0" encoding="UTF-8"?>
<svg width="27px" height="27px" viewBox="0 0 27 27" version="1.1" xmlns="http://www.w3.org/2000/svg" xmlns:xlink="http://www.w3.org/1999/xlink">
    <!-- Generator: Sketch 42 (36781) - http://www.bohemiancoding.com/sketch -->
    <title></title>
    <desc>Created with Sketch.</desc>
    <defs></defs>
    <g id="Page-1" stroke="none" stroke-width="1" fill="none" fill-rule="evenodd">
        <g id="Ювелирка" transform="translate(-672.000000, -3763.000000)" fill="#999999">
            <g id="footer" transform="translate(480.000000, 3299.000000)">
                <g id="socials" transform="translate(152.000000, 462.000000)">
                    <path d="M57.4642858,15.2857143 C57.4642858,14.1026727 57.0457632,13.0926381 56.2087055,12.2555804 C55.3716477,11.4185226 54.3616132,11 53.1785716,11 C51.9955299,11 50.9854954,11.4185226 50.1484376,12.2555804 C49.3113799,13.0926381 48.8928573,14.1026727 48.8928573,15.2857143 C48.8928573,16.4687559 49.3113799,17.4787905 50.1484376,18.3158482 C50.9854954,19.152906 51.9955299,19.5714286 53.1785716,19.5714286 C54.3616132,19.5714286 55.3716477,19.152906 56.2087055,18.3158482 C57.0457632,17.4787905 57.4642858,16.4687559 57.4642858,15.2857143 Z M59.7745537,15.2857143 C59.7745537,17.1160806 59.132819,18.6729847 57.8493305,19.9564732 C56.5658419,21.2399618 55.0089378,21.8816964 53.1785716,21.8816964 C51.3482053,21.8816964 49.7913012,21.2399618 48.5078126,19.9564732 C47.2243241,18.6729847 46.5825894,17.1160806 46.5825894,15.2857143 C46.5825894,13.455348 47.2243241,11.8984439 48.5078126,10.6149554 C49.7913012,9.3314668 51.3482053,8.68973214 53.1785716,8.68973214 C55.0089378,8.68973214 56.5658419,9.3314668 57.8493305,10.6149554 C59.132819,11.8984439 59.7745537,13.455348 59.7745537,15.2857143 Z M61.5825894,8.421875 C61.5825894,8.84598426 61.4319213,9.20870385 61.1305805,9.51004464 C60.8292397,9.81138544 60.4665201,9.96205357 60.0424108,9.96205357 C59.6183016,9.96205357 59.255582,9.81138544 58.9542412,9.51004464 C58.6529004,9.20870385 58.5022323,8.84598426 58.5022323,8.421875 C58.5022323,7.99776574 58.6529004,7.63504615 58.9542412,7.33370536 C59.255582,7.03236456 59.6183016,6.88169643 60.0424108,6.88169643 C60.4665201,6.88169643 60.8292397,7.03236456 61.1305805,7.33370536 C61.4319213,7.63504615 61.5825894,7.99776574 61.5825894,8.421875 Z M53.1785716,4.73883929 C53.1004462,4.73883929 52.6735531,4.73604914 51.8978796,4.73046875 C51.1222061,4.72488836 50.5334843,4.72488836 50.1316966,4.73046875 C49.7299088,4.73604914 49.1914097,4.75279004 48.5161832,4.78069196 C47.8409566,4.80859389 47.2661855,4.8643969 46.7918528,4.94810268 C46.3175201,5.03180845 45.9185285,5.13504403 45.5948662,5.2578125 C45.0368277,5.4810279 44.5457612,5.80468538 44.1216519,6.22879464 C43.6975426,6.65290391 43.3738852,7.14397042 43.1506698,7.70200893 C43.0279013,8.02567126 42.9246657,8.42466281 42.8409599,8.89899554 C42.7572542,9.37332826 42.7014512,9.9480993 42.6735492,10.6233259 C42.6456473,11.2985525 42.6289064,11.8370516 42.623326,12.2388393 C42.6177456,12.640627 42.6177456,13.2293488 42.623326,14.0050223 C42.6289064,14.7806958 42.6316966,15.2075889 42.6316966,15.2857143 C42.6316966,15.3638397 42.6289064,15.7907327 42.623326,16.5664063 C42.6177456,17.3420798 42.6177456,17.9308016 42.623326,18.3325893 C42.6289064,18.734377 42.6456473,19.2728761 42.6735492,19.9481027 C42.7014512,20.6233293 42.7572542,21.1981003 42.8409599,21.672433 C42.9246657,22.1467658 43.0279013,22.5457573 43.1506698,22.8694196 C43.3738852,23.4274581 43.6975426,23.9185247 44.1216519,24.3426339 C44.5457612,24.7667432 45.0368277,25.0904007 45.5948662,25.3136161 C45.9185285,25.4363845 46.3175201,25.5396201 46.7918528,25.6233259 C47.2661855,25.7070317 47.8409566,25.7628347 48.5161832,25.7907366 C49.1914097,25.8186385 49.7299088,25.8353794 50.1316966,25.8409598 C50.5334843,25.8465402 51.1222061,25.8465402 51.8978796,25.8409598 C52.6735531,25.8353794 53.1004462,25.8325893 53.1785716,25.8325893 C53.2566969,25.8325893 53.68359,25.8353794 54.4592635,25.8409598 C55.234937,25.8465402 55.8236588,25.8465402 56.2254466,25.8409598 C56.6272343,25.8353794 57.1657334,25.8186385 57.8409599,25.7907366 C58.5161865,25.7628347 59.0909576,25.7070317 59.5652903,25.6233259 C60.039623,25.5396201 60.4386146,25.4363845 60.7622769,25.3136161 C61.3203154,25.0904007 61.8113819,24.7667432 62.2354912,24.3426339 C62.6596005,23.9185247 62.9832579,23.4274581 63.2064733,22.8694196 C63.3292418,22.5457573 63.4324774,22.1467658 63.5161832,21.672433 C63.5998889,21.1981003 63.6556919,20.6233293 63.6835939,19.9481027 C63.7114958,19.2728761 63.7282367,18.734377 63.7338171,18.3325893 C63.7393975,17.9308016 63.7393975,17.3420798 63.7338171,16.5664063 C63.7282367,15.7907327 63.7254466,15.3638397 63.7254466,15.2857143 C63.7254466,15.2075889 63.7282367,14.7806958 63.7338171,14.0050223 C63.7393975,13.2293488 63.7393975,12.640627 63.7338171,12.2388393 C63.7282367,11.8370516 63.7114958,11.2985525 63.6835939,10.6233259 C63.6556919,9.9480993 63.5998889,9.37332826 63.5161832,8.89899554 C63.4324774,8.42466281 63.3292418,8.02567126 63.2064733,7.70200893 C62.9832579,7.14397042 62.6596005,6.65290391 62.2354912,6.22879464 C61.8113819,5.80468538 61.3203154,5.4810279 60.7622769,5.2578125 C60.4386146,5.13504403 60.039623,5.03180845 59.5652903,4.94810268 C59.0909576,4.8643969 58.5161865,4.80859389 57.8409599,4.78069196 C57.1657334,4.75279004 56.6272343,4.73604914 56.2254466,4.73046875 C55.8236588,4.72488836 55.234937,4.72488836 54.4592635,4.73046875 C53.68359,4.73604914 53.2566969,4.73883929 53.1785716,4.73883929 Z M66.0357144,15.2857143 C66.0357144,17.8415306 66.0078129,19.6104862 65.9520091,20.5926339 C65.8404014,22.9140741 65.148444,24.7109311 63.8761162,25.9832589 C62.6037884,27.2555867 60.8069314,27.9475441 58.4854912,28.0591518 C57.5033434,28.1149556 55.7343879,28.1428571 53.1785716,28.1428571 C50.6227552,28.1428571 48.8537997,28.1149556 47.8716519,28.0591518 C45.5502117,27.9475441 43.7533547,27.2555867 42.4810269,25.9832589 C41.2086991,24.7109311 40.5167418,22.9140741 40.4051341,20.5926339 C40.3493302,19.6104862 40.3214287,17.8415306 40.3214287,15.2857143 C40.3214287,12.7298979 40.3493302,10.9609424 40.4051341,9.97879464 C40.5167418,7.65735446 41.2086991,5.86049743 42.4810269,4.58816964 C43.7533547,3.31584185 45.5502117,2.62388449 47.8716519,2.51227679 C48.8537997,2.45647294 50.6227552,2.42857143 53.1785716,2.42857143 C55.7343879,2.42857143 57.5033434,2.45647294 58.4854912,2.51227679 C60.8069314,2.62388449 62.6037884,3.31584185 63.8761162,4.58816964 C65.148444,5.86049743 65.8404014,7.65735446 65.9520091,9.97879464 C66.0078129,10.9609424 66.0357144,12.7298979 66.0357144,15.2857143 Z" id=""></path>
                </g>
            </g>
        </g>
    </g>
</svg>