<?xml version="1.0" encoding="UTF-8"?>
<svg width="16px" height="29px" viewBox="0 0 16 29" version="1.1" xmlns="http://www.w3.org/2000/svg" xmlns:xlink="http://www.w3.org/1999/xlink">
    <!-- Generator: Sketch 42 (36781) - http://www.bohemiancoding.com/sketch -->
    <title></title>
    <desc>Created with Sketch.</desc>
    <defs></defs>
    <g id="Page-1" stroke="none" stroke-width="1" fill="none" fill-rule="evenodd">
        <g id="Ювелирка" transform="translate(-750.000000, -3761.000000)" fill="#999999">
            <g id="footer" transform="translate(480.000000, 3299.000000)">
                <g id="socials" transform="translate(152.000000, 462.000000)">
                    <path d="M133.16183,0.486607143 L133.16183,4.90625 L130.533482,4.90625 C129.573656,4.90625 128.926341,5.10714085 128.591518,5.50892857 C128.256695,5.91071629 128.089286,6.51338884 128.089286,7.31696429 L128.089286,10.4810268 L132.99442,10.4810268 L132.341518,15.4363839 L128.089286,15.4363839 L128.089286,28.1428571 L122.966518,28.1428571 L122.966518,15.4363839 L118.697545,15.4363839 L118.697545,10.4810268 L122.966518,10.4810268 L122.966518,6.83147321 C122.966518,4.75556998 123.546869,3.14565304 124.707589,2.00167411 C125.868309,0.857695173 127.414053,0.285714286 129.344866,0.285714286 C130.985499,0.285714286 132.257808,0.352677902 133.16183,0.486607143 Z" id=""></path>
                </g>
            </g>
        </g>
    </g>
</svg>